<mxfile host="app.diagrams.net" modified="2024-05-20T09:18:34.479Z" agent="Mozilla/5.0 (Windows NT 10.0; Win64; x64) AppleWebKit/537.36 (KHTML, like Gecko) Chrome/125.0.0.0 Safari/537.36" etag="J0qqnf_fUXT6B549bHq2" version="24.4.4" type="github">
  <diagram name="第 1 页" id="Fu0R1MFzWa6YzTho8a_D">
    <mxGraphModel dx="1434" dy="746" grid="1" gridSize="10" guides="1" tooltips="1" connect="1" arrows="1" fold="1" page="1" pageScale="1" pageWidth="827" pageHeight="1169" math="0" shadow="0">
      <root>
        <mxCell id="0" />
        <mxCell id="1" parent="0" />
        <mxCell id="GyTgs1EJwbVY7Si8vsgn-1" value="" style="edgeStyle=orthogonalEdgeStyle;rounded=0;orthogonalLoop=1;jettySize=auto;html=1;" edge="1" parent="1" source="GyTgs1EJwbVY7Si8vsgn-2" target="GyTgs1EJwbVY7Si8vsgn-4">
          <mxGeometry relative="1" as="geometry" />
        </mxCell>
        <mxCell id="GyTgs1EJwbVY7Si8vsgn-2" value="studentExcelImport" style="rounded=1;whiteSpace=wrap;html=1;" vertex="1" parent="1">
          <mxGeometry x="380" y="30" width="190" height="60" as="geometry" />
        </mxCell>
        <mxCell id="GyTgs1EJwbVY7Si8vsgn-38" value="" style="edgeStyle=orthogonalEdgeStyle;rounded=0;orthogonalLoop=1;jettySize=auto;html=1;" edge="1" parent="1" source="GyTgs1EJwbVY7Si8vsgn-4" target="GyTgs1EJwbVY7Si8vsgn-37">
          <mxGeometry relative="1" as="geometry" />
        </mxCell>
        <mxCell id="GyTgs1EJwbVY7Si8vsgn-4" value="上传OSS生成文件PATH" style="rounded=1;whiteSpace=wrap;html=1;" vertex="1" parent="1">
          <mxGeometry x="380" y="170" width="190" height="60" as="geometry" />
        </mxCell>
        <mxCell id="GyTgs1EJwbVY7Si8vsgn-5" value="" style="edgeStyle=orthogonalEdgeStyle;rounded=0;orthogonalLoop=1;jettySize=auto;html=1;" edge="1" parent="1" source="GyTgs1EJwbVY7Si8vsgn-6" target="GyTgs1EJwbVY7Si8vsgn-8">
          <mxGeometry relative="1" as="geometry" />
        </mxCell>
        <mxCell id="GyTgs1EJwbVY7Si8vsgn-6" value="根据险种调产品工厂获取Excel模板" style="rounded=1;whiteSpace=wrap;html=1;" vertex="1" parent="1">
          <mxGeometry x="380" y="440" width="190" height="60" as="geometry" />
        </mxCell>
        <mxCell id="GyTgs1EJwbVY7Si8vsgn-7" value="" style="edgeStyle=orthogonalEdgeStyle;rounded=0;orthogonalLoop=1;jettySize=auto;html=1;" edge="1" parent="1" source="GyTgs1EJwbVY7Si8vsgn-8" target="GyTgs1EJwbVY7Si8vsgn-10">
          <mxGeometry relative="1" as="geometry" />
        </mxCell>
        <mxCell id="GyTgs1EJwbVY7Si8vsgn-8" value="根据险种调产品工厂获取Excel模板" style="rounded=1;whiteSpace=wrap;html=1;" vertex="1" parent="1">
          <mxGeometry x="380" y="550" width="190" height="60" as="geometry" />
        </mxCell>
        <mxCell id="GyTgs1EJwbVY7Si8vsgn-9" value="" style="edgeStyle=orthogonalEdgeStyle;rounded=0;orthogonalLoop=1;jettySize=auto;html=1;" edge="1" parent="1" source="GyTgs1EJwbVY7Si8vsgn-10" target="GyTgs1EJwbVY7Si8vsgn-12">
          <mxGeometry relative="1" as="geometry" />
        </mxCell>
        <mxCell id="GyTgs1EJwbVY7Si8vsgn-10" value="获取保单模型" style="rounded=1;whiteSpace=wrap;html=1;" vertex="1" parent="1">
          <mxGeometry x="380" y="650" width="190" height="60" as="geometry" />
        </mxCell>
        <mxCell id="GyTgs1EJwbVY7Si8vsgn-11" value="" style="edgeStyle=orthogonalEdgeStyle;rounded=0;orthogonalLoop=1;jettySize=auto;html=1;" edge="1" parent="1" source="GyTgs1EJwbVY7Si8vsgn-12" target="GyTgs1EJwbVY7Si8vsgn-15">
          <mxGeometry relative="1" as="geometry" />
        </mxCell>
        <mxCell id="GyTgs1EJwbVY7Si8vsgn-12" value="&lt;div&gt;日志handler&lt;/div&gt;统一处理日志表（Insurancebatch）" style="rounded=1;whiteSpace=wrap;html=1;" vertex="1" parent="1">
          <mxGeometry x="380" y="770" width="190" height="60" as="geometry" />
        </mxCell>
        <mxCell id="GyTgs1EJwbVY7Si8vsgn-13" value="" style="edgeStyle=orthogonalEdgeStyle;rounded=0;orthogonalLoop=1;jettySize=auto;html=1;" edge="1" parent="1" source="GyTgs1EJwbVY7Si8vsgn-15" target="GyTgs1EJwbVY7Si8vsgn-16">
          <mxGeometry relative="1" as="geometry" />
        </mxCell>
        <mxCell id="GyTgs1EJwbVY7Si8vsgn-14" value="" style="edgeStyle=orthogonalEdgeStyle;rounded=0;orthogonalLoop=1;jettySize=auto;html=1;" edge="1" parent="1" source="GyTgs1EJwbVY7Si8vsgn-15" target="GyTgs1EJwbVY7Si8vsgn-18">
          <mxGeometry relative="1" as="geometry" />
        </mxCell>
        <mxCell id="GyTgs1EJwbVY7Si8vsgn-15" value="是否有批次号" style="rhombus;whiteSpace=wrap;html=1;" vertex="1" parent="1">
          <mxGeometry x="685" y="760" width="80" height="80" as="geometry" />
        </mxCell>
        <mxCell id="GyTgs1EJwbVY7Si8vsgn-16" value="删除批次" style="rounded=1;whiteSpace=wrap;html=1;" vertex="1" parent="1">
          <mxGeometry x="855" y="770" width="190" height="60" as="geometry" />
        </mxCell>
        <mxCell id="GyTgs1EJwbVY7Si8vsgn-17" value="" style="edgeStyle=orthogonalEdgeStyle;rounded=0;orthogonalLoop=1;jettySize=auto;html=1;" edge="1" parent="1" source="GyTgs1EJwbVY7Si8vsgn-18" target="GyTgs1EJwbVY7Si8vsgn-20">
          <mxGeometry relative="1" as="geometry" />
        </mxCell>
        <mxCell id="GyTgs1EJwbVY7Si8vsgn-18" value="查出批次所有数据，但只用了条数&lt;div&gt;构建（ImportFileDTO）&lt;/div&gt;" style="rounded=1;whiteSpace=wrap;html=1;" vertex="1" parent="1">
          <mxGeometry x="630" y="900" width="190" height="60" as="geometry" />
        </mxCell>
        <mxCell id="GyTgs1EJwbVY7Si8vsgn-19" value="" style="edgeStyle=orthogonalEdgeStyle;rounded=0;orthogonalLoop=1;jettySize=auto;html=1;" edge="1" parent="1" source="GyTgs1EJwbVY7Si8vsgn-20" target="GyTgs1EJwbVY7Si8vsgn-22">
          <mxGeometry relative="1" as="geometry" />
        </mxCell>
        <mxCell id="GyTgs1EJwbVY7Si8vsgn-20" value="&lt;pre style=&quot;font-family: &amp;quot;JetBrains Mono&amp;quot;, monospace; font-size: 9.8pt;&quot;&gt;&lt;span style=&quot;background-color: rgb(255, 255, 255);&quot;&gt;写入Insurancebatch&lt;/span&gt;&lt;span style=&quot;color: rgb(169, 183, 198); background-color: rgb(43, 43, 43);&quot;&gt;&lt;br&gt;&lt;/span&gt;&lt;/pre&gt;" style="rounded=1;whiteSpace=wrap;html=1;" vertex="1" parent="1">
          <mxGeometry x="630" y="1060" width="190" height="60" as="geometry" />
        </mxCell>
        <mxCell id="GyTgs1EJwbVY7Si8vsgn-21" value="" style="edgeStyle=orthogonalEdgeStyle;rounded=0;orthogonalLoop=1;jettySize=auto;html=1;" edge="1" parent="1" source="GyTgs1EJwbVY7Si8vsgn-22" target="GyTgs1EJwbVY7Si8vsgn-24">
          <mxGeometry relative="1" as="geometry" />
        </mxCell>
        <mxCell id="GyTgs1EJwbVY7Si8vsgn-22" value="&lt;pre style=&quot;font-family: &amp;quot;JetBrains Mono&amp;quot;, monospace; font-size: 9.8pt;&quot;&gt;&lt;span style=&quot;background-color: rgb(255, 255, 255);&quot;&gt;校验handler&lt;/span&gt;&lt;span style=&quot;color: rgb(169, 183, 198); background-color: rgb(43, 43, 43);&quot;&gt;&lt;br&gt;&lt;/span&gt;&lt;/pre&gt;&lt;pre style=&quot;font-family: &amp;quot;JetBrains Mono&amp;quot;, monospace; font-size: 9.8pt;&quot;&gt;&lt;span style=&quot;background-color: rgb(255, 255, 255);&quot;&gt;初始化生成清单序列号逻辑&lt;/span&gt;&lt;/pre&gt;" style="rounded=1;whiteSpace=wrap;html=1;" vertex="1" parent="1">
          <mxGeometry x="360" y="1060" width="190" height="60" as="geometry" />
        </mxCell>
        <mxCell id="GyTgs1EJwbVY7Si8vsgn-23" value="" style="edgeStyle=orthogonalEdgeStyle;rounded=0;orthogonalLoop=1;jettySize=auto;html=1;" edge="1" parent="1" source="GyTgs1EJwbVY7Si8vsgn-24" target="GyTgs1EJwbVY7Si8vsgn-26">
          <mxGeometry relative="1" as="geometry" />
        </mxCell>
        <mxCell id="GyTgs1EJwbVY7Si8vsgn-24" value="&lt;span style=&quot;background-color: rgb(255, 255, 255);&quot;&gt;调用EsayExcel解析文件&lt;/span&gt;" style="rounded=1;whiteSpace=wrap;html=1;" vertex="1" parent="1">
          <mxGeometry x="360" y="1200" width="190" height="60" as="geometry" />
        </mxCell>
        <mxCell id="GyTgs1EJwbVY7Si8vsgn-25" value="" style="edgeStyle=orthogonalEdgeStyle;rounded=0;orthogonalLoop=1;jettySize=auto;html=1;" edge="1" parent="1" source="GyTgs1EJwbVY7Si8vsgn-26" target="GyTgs1EJwbVY7Si8vsgn-28">
          <mxGeometry relative="1" as="geometry" />
        </mxCell>
        <mxCell id="GyTgs1EJwbVY7Si8vsgn-26" value="BatchInsureExcelListener&lt;div&gt;产品工厂驱动模型保存&lt;br&gt;&lt;/div&gt;" style="rounded=1;whiteSpace=wrap;html=1;" vertex="1" parent="1">
          <mxGeometry x="360" y="1320" width="190" height="60" as="geometry" />
        </mxCell>
        <mxCell id="GyTgs1EJwbVY7Si8vsgn-27" value="" style="edgeStyle=orthogonalEdgeStyle;rounded=0;orthogonalLoop=1;jettySize=auto;html=1;" edge="1" parent="1" source="GyTgs1EJwbVY7Si8vsgn-28" target="GyTgs1EJwbVY7Si8vsgn-30">
          <mxGeometry relative="1" as="geometry" />
        </mxCell>
        <mxCell id="GyTgs1EJwbVY7Si8vsgn-28" value="前置拦截&lt;div&gt;校验、写入Insurancebatchetail&lt;/div&gt;" style="rounded=1;whiteSpace=wrap;html=1;" vertex="1" parent="1">
          <mxGeometry x="650" y="1320" width="190" height="60" as="geometry" />
        </mxCell>
        <mxCell id="GyTgs1EJwbVY7Si8vsgn-55" style="edgeStyle=orthogonalEdgeStyle;rounded=0;orthogonalLoop=1;jettySize=auto;html=1;" edge="1" parent="1" source="GyTgs1EJwbVY7Si8vsgn-30" target="GyTgs1EJwbVY7Si8vsgn-33">
          <mxGeometry relative="1" as="geometry" />
        </mxCell>
        <mxCell id="GyTgs1EJwbVY7Si8vsgn-58" style="edgeStyle=orthogonalEdgeStyle;rounded=0;orthogonalLoop=1;jettySize=auto;html=1;dashed=1;" edge="1" parent="1" source="GyTgs1EJwbVY7Si8vsgn-30" target="GyTgs1EJwbVY7Si8vsgn-32">
          <mxGeometry relative="1" as="geometry" />
        </mxCell>
        <mxCell id="GyTgs1EJwbVY7Si8vsgn-59" value="保存时" style="edgeLabel;html=1;align=center;verticalAlign=middle;resizable=0;points=[];" vertex="1" connectable="0" parent="GyTgs1EJwbVY7Si8vsgn-58">
          <mxGeometry x="-0.2" y="3" relative="1" as="geometry">
            <mxPoint as="offset" />
          </mxGeometry>
        </mxCell>
        <mxCell id="GyTgs1EJwbVY7Si8vsgn-30" value="后置拦截&lt;div&gt;给prpPnameTemp对象赋值，保单号、序列号、nameno、flag、条数等信息&lt;/div&gt;" style="rounded=1;whiteSpace=wrap;html=1;" vertex="1" parent="1">
          <mxGeometry x="650" y="1460" width="190" height="60" as="geometry" />
        </mxCell>
        <mxCell id="GyTgs1EJwbVY7Si8vsgn-32" value="ListenerInstance&lt;br&gt;开始导入逻辑" style="rounded=1;whiteSpace=wrap;html=1;" vertex="1" parent="1">
          <mxGeometry x="1020" y="1460" width="190" height="60" as="geometry" />
        </mxCell>
        <mxCell id="GyTgs1EJwbVY7Si8vsgn-44" value="" style="edgeStyle=orthogonalEdgeStyle;rounded=0;orthogonalLoop=1;jettySize=auto;html=1;" edge="1" parent="1" source="GyTgs1EJwbVY7Si8vsgn-33" target="GyTgs1EJwbVY7Si8vsgn-43">
          <mxGeometry relative="1" as="geometry" />
        </mxCell>
        <mxCell id="GyTgs1EJwbVY7Si8vsgn-33" value="利用json序列化，&lt;div&gt;将cName转为prpcopyNametemp&lt;/div&gt;" style="rounded=1;whiteSpace=wrap;html=1;" vertex="1" parent="1">
          <mxGeometry x="650" y="1610" width="190" height="60" as="geometry" />
        </mxCell>
        <mxCell id="GyTgs1EJwbVY7Si8vsgn-40" value="" style="edgeStyle=orthogonalEdgeStyle;rounded=0;orthogonalLoop=1;jettySize=auto;html=1;" edge="1" parent="1" source="GyTgs1EJwbVY7Si8vsgn-37" target="GyTgs1EJwbVY7Si8vsgn-39">
          <mxGeometry relative="1" as="geometry" />
        </mxCell>
        <mxCell id="GyTgs1EJwbVY7Si8vsgn-42" value="" style="edgeStyle=orthogonalEdgeStyle;rounded=0;orthogonalLoop=1;jettySize=auto;html=1;" edge="1" parent="1" source="GyTgs1EJwbVY7Si8vsgn-37" target="GyTgs1EJwbVY7Si8vsgn-6">
          <mxGeometry relative="1" as="geometry" />
        </mxCell>
        <mxCell id="GyTgs1EJwbVY7Si8vsgn-37" value="是否全量上传" style="rhombus;whiteSpace=wrap;html=1;rounded=1;" vertex="1" parent="1">
          <mxGeometry x="435" y="310" width="80" height="80" as="geometry" />
        </mxCell>
        <mxCell id="GyTgs1EJwbVY7Si8vsgn-41" style="edgeStyle=orthogonalEdgeStyle;rounded=0;orthogonalLoop=1;jettySize=auto;html=1;" edge="1" parent="1" source="GyTgs1EJwbVY7Si8vsgn-39" target="GyTgs1EJwbVY7Si8vsgn-6">
          <mxGeometry relative="1" as="geometry">
            <Array as="points">
              <mxPoint x="770" y="470" />
            </Array>
          </mxGeometry>
        </mxCell>
        <mxCell id="GyTgs1EJwbVY7Si8vsgn-39" value="删除临时表CPtemp、copytemp" style="whiteSpace=wrap;html=1;rounded=1;" vertex="1" parent="1">
          <mxGeometry x="685" y="320" width="120" height="60" as="geometry" />
        </mxCell>
        <mxCell id="GyTgs1EJwbVY7Si8vsgn-46" value="" style="edgeStyle=orthogonalEdgeStyle;rounded=0;orthogonalLoop=1;jettySize=auto;html=1;" edge="1" parent="1" source="GyTgs1EJwbVY7Si8vsgn-43" target="GyTgs1EJwbVY7Si8vsgn-45">
          <mxGeometry relative="1" as="geometry" />
        </mxCell>
        <mxCell id="GyTgs1EJwbVY7Si8vsgn-43" value="循环查询prppnametemp的数据在&lt;div&gt;prpcopynametemp中是否存在&lt;/div&gt;" style="rounded=1;whiteSpace=wrap;html=1;" vertex="1" parent="1">
          <mxGeometry x="650" y="1750" width="190" height="60" as="geometry" />
        </mxCell>
        <mxCell id="GyTgs1EJwbVY7Si8vsgn-50" value="" style="edgeStyle=orthogonalEdgeStyle;rounded=0;orthogonalLoop=1;jettySize=auto;html=1;" edge="1" parent="1" source="GyTgs1EJwbVY7Si8vsgn-45" target="GyTgs1EJwbVY7Si8vsgn-49">
          <mxGeometry relative="1" as="geometry" />
        </mxCell>
        <mxCell id="GyTgs1EJwbVY7Si8vsgn-45" value="将匹配上的P表的新值更新旧值&lt;div&gt;打上U的标识&lt;/div&gt;" style="rounded=1;whiteSpace=wrap;html=1;" vertex="1" parent="1">
          <mxGeometry x="650" y="1890" width="190" height="60" as="geometry" />
        </mxCell>
        <mxCell id="GyTgs1EJwbVY7Si8vsgn-47" value="" style="shape=curlyBracket;whiteSpace=wrap;html=1;rounded=1;flipH=1;labelPosition=right;verticalLabelPosition=middle;align=left;verticalAlign=middle;" vertex="1" parent="1">
          <mxGeometry x="951" y="1770" width="20" height="120" as="geometry" />
        </mxCell>
        <mxCell id="GyTgs1EJwbVY7Si8vsgn-48" value="打上U标识" style="text;html=1;align=center;verticalAlign=middle;resizable=0;points=[];autosize=1;strokeColor=none;fillColor=none;" vertex="1" parent="1">
          <mxGeometry x="990" y="1808" width="80" height="30" as="geometry" />
        </mxCell>
        <mxCell id="GyTgs1EJwbVY7Si8vsgn-49" value="将匹配上的P表的新值更新旧值&lt;div&gt;打上U的标识&lt;/div&gt;" style="rounded=1;whiteSpace=wrap;html=1;" vertex="1" parent="1">
          <mxGeometry x="650" y="2030" width="190" height="60" as="geometry" />
        </mxCell>
        <mxCell id="GyTgs1EJwbVY7Si8vsgn-51" value="" style="shape=curlyBracket;whiteSpace=wrap;html=1;rounded=1;flipH=1;labelPosition=right;verticalLabelPosition=middle;align=left;verticalAlign=middle;" vertex="1" parent="1">
          <mxGeometry x="910" y="2060" width="20" height="160" as="geometry" />
        </mxCell>
        <mxCell id="GyTgs1EJwbVY7Si8vsgn-54" value="打上I标识" style="text;html=1;align=center;verticalAlign=middle;resizable=0;points=[];autosize=1;strokeColor=none;fillColor=none;" vertex="1" parent="1">
          <mxGeometry x="935" y="2128" width="70" height="30" as="geometry" />
        </mxCell>
      </root>
    </mxGraphModel>
  </diagram>
</mxfile>
